<?xml version="1.0" standalone="no"?>
<!DOCTYPE svg PUBLIC "-//W3C//DTD SVG 20010904//EN"
 "http://www.w3.org/TR/2001/REC-SVG-20010904/DTD/svg10.dtd">
<svg version="1.0" xmlns="http://www.w3.org/2000/svg"
 width="700.000000pt" height="700.000000pt" viewBox="0 0 700.000000 700.000000"
 preserveAspectRatio="xMidYMid meet">
<metadata>
Created by potrace 1.14, written by Peter Selinger 2001-2017
</metadata>
<g transform="translate(0.000000,700.000000) scale(0.100000,-0.100000)"
fill="#000000" stroke="none">
<path d="M3265 6299 c-366 -34 -696 -129 -1028 -295 -239 -120 -475 -287 -675
-480 -158 -150 -268 -281 -391 -466 -454 -676 -593 -1502 -386 -2296 182 -697
642 -1311 1264 -1686 325 -197 684 -325 1076 -383 152 -22 590 -25 735 -5 459
65 842 209 1210 453 175 117 299 220 448 371 151 153 226 246 344 423 213 319
362 693 427 1069 63 363 51 791 -33 1139 -123 509 -383 974 -751 1342 -439
438 -1005 716 -1631 800 -144 20 -472 27 -609 14z m-803 -2031 l3 -1083 25
-44 c29 -53 67 -77 139 -91 108 -20 194 22 240 119 l26 56 3 1063 3 1062 317
-2 317 -3 3 -990 c2 -630 -1 -1030 -8 -1100 -42 -450 -291 -674 -780 -701
-214 -12 -426 26 -575 104 -134 70 -252 212 -306 369 -48 140 -49 170 -49
1281 l0 1042 320 0 320 0 2 -1082z m1968 -998 l0 -1090 390 0 390 0 0 -275 0
-275 -710 0 -710 0 0 1365 0 1365 320 0 320 0 0 -1090z"/>
</g>
</svg>
